<mxfile host="app.diagrams.net" agent="Mozilla/5.0 (Windows NT 10.0; Win64; x64) AppleWebKit/537.36 (KHTML, like Gecko) Chrome/131.0.0.0 Safari/537.36" version="26.0.8">
  <diagram id="R2lEEEUBdFMjLlhIrx00" name="Page-1">
    <mxGraphModel dx="2759" dy="1013" grid="1" gridSize="10" guides="1" tooltips="1" connect="1" arrows="1" fold="1" page="1" pageScale="1" pageWidth="850" pageHeight="1100" math="0" shadow="0" extFonts="Permanent Marker^https://fonts.googleapis.com/css?family=Permanent+Marker">
      <root>
        <mxCell id="0" />
        <mxCell id="1" parent="0" />
        <mxCell id="2kyyC0OLafyG5U_MLPPI-2" value="" style="rounded=0;whiteSpace=wrap;html=1;" parent="1" vertex="1">
          <mxGeometry x="120" y="180" width="170" height="60" as="geometry" />
        </mxCell>
        <mxCell id="2kyyC0OLafyG5U_MLPPI-3" value="Movies" style="text;strokeColor=none;fillColor=none;html=1;fontSize=24;fontStyle=1;verticalAlign=middle;align=center;" parent="1" vertex="1">
          <mxGeometry x="155" y="190" width="100" height="40" as="geometry" />
        </mxCell>
        <mxCell id="2kyyC0OLafyG5U_MLPPI-4" value="" style="endArrow=none;html=1;rounded=0;" parent="1" edge="1">
          <mxGeometry width="50" height="50" relative="1" as="geometry">
            <mxPoint x="270" y="180" as="sourcePoint" />
            <mxPoint x="320" y="130" as="targetPoint" />
          </mxGeometry>
        </mxCell>
        <mxCell id="2kyyC0OLafyG5U_MLPPI-5" value="" style="endArrow=none;html=1;rounded=0;" parent="1" edge="1">
          <mxGeometry width="50" height="50" relative="1" as="geometry">
            <mxPoint x="210" y="180" as="sourcePoint" />
            <mxPoint x="210" y="110" as="targetPoint" />
          </mxGeometry>
        </mxCell>
        <mxCell id="2kyyC0OLafyG5U_MLPPI-6" value="" style="endArrow=none;html=1;rounded=0;" parent="1" edge="1">
          <mxGeometry width="50" height="50" relative="1" as="geometry">
            <mxPoint x="140" y="180" as="sourcePoint" />
            <mxPoint x="100" y="130" as="targetPoint" />
          </mxGeometry>
        </mxCell>
        <mxCell id="2kyyC0OLafyG5U_MLPPI-7" value="" style="ellipse;whiteSpace=wrap;html=1;strokeWidth=1;" parent="1" vertex="1">
          <mxGeometry x="270" y="60" width="120" height="80" as="geometry" />
        </mxCell>
        <mxCell id="2kyyC0OLafyG5U_MLPPI-8" value="&lt;u&gt;mId&lt;/u&gt;" style="text;strokeColor=none;fillColor=none;html=1;fontSize=24;fontStyle=1;verticalAlign=middle;align=center;" parent="1" vertex="1">
          <mxGeometry x="280" y="80" width="100" height="40" as="geometry" />
        </mxCell>
        <mxCell id="2kyyC0OLafyG5U_MLPPI-9" value="" style="ellipse;whiteSpace=wrap;html=1;" parent="1" vertex="1">
          <mxGeometry x="145" y="40" width="120" height="80" as="geometry" />
        </mxCell>
        <mxCell id="2kyyC0OLafyG5U_MLPPI-11" value="mName" style="text;strokeColor=none;fillColor=none;html=1;fontSize=24;fontStyle=1;verticalAlign=middle;align=center;" parent="1" vertex="1">
          <mxGeometry x="155" y="60" width="100" height="40" as="geometry" />
        </mxCell>
        <mxCell id="2kyyC0OLafyG5U_MLPPI-13" value="" style="ellipse;whiteSpace=wrap;html=1;" parent="1" vertex="1">
          <mxGeometry x="25" y="60" width="120" height="80" as="geometry" />
        </mxCell>
        <mxCell id="2kyyC0OLafyG5U_MLPPI-12" value="mDuration" style="text;strokeColor=none;fillColor=none;html=1;fontSize=24;fontStyle=1;verticalAlign=middle;align=center;" parent="1" vertex="1">
          <mxGeometry x="35" y="80" width="100" height="40" as="geometry" />
        </mxCell>
        <mxCell id="2kyyC0OLafyG5U_MLPPI-15" value="" style="rhombus;whiteSpace=wrap;html=1;" parent="1" vertex="1">
          <mxGeometry x="400" y="160" width="220" height="80" as="geometry" />
        </mxCell>
        <mxCell id="2kyyC0OLafyG5U_MLPPI-16" value="Directed_&lt;span style=&quot;background-color: transparent; color: light-dark(rgb(0, 0, 0), rgb(255, 255, 255));&quot;&gt;By&lt;/span&gt;" style="text;strokeColor=none;fillColor=none;html=1;fontSize=24;fontStyle=1;verticalAlign=middle;align=center;" parent="1" vertex="1">
          <mxGeometry x="460" y="180" width="100" height="40" as="geometry" />
        </mxCell>
        <mxCell id="2kyyC0OLafyG5U_MLPPI-18" value="" style="endArrow=none;html=1;rounded=0;entryX=0.045;entryY=0.463;entryDx=0;entryDy=0;entryPerimeter=0;" parent="1" target="2kyyC0OLafyG5U_MLPPI-15" edge="1">
          <mxGeometry width="50" height="50" relative="1" as="geometry">
            <mxPoint x="290" y="210" as="sourcePoint" />
            <mxPoint x="340" y="160" as="targetPoint" />
          </mxGeometry>
        </mxCell>
        <mxCell id="2kyyC0OLafyG5U_MLPPI-19" value="" style="rounded=0;whiteSpace=wrap;html=1;" parent="1" vertex="1">
          <mxGeometry x="710" y="170" width="120" height="60" as="geometry" />
        </mxCell>
        <mxCell id="2kyyC0OLafyG5U_MLPPI-20" value="Directors" style="text;strokeColor=none;fillColor=none;html=1;fontSize=24;fontStyle=1;verticalAlign=middle;align=center;" parent="1" vertex="1">
          <mxGeometry x="720" y="180" width="100" height="40" as="geometry" />
        </mxCell>
        <mxCell id="2kyyC0OLafyG5U_MLPPI-21" value="" style="endArrow=none;html=1;rounded=0;entryX=0;entryY=0.5;entryDx=0;entryDy=0;" parent="1" target="2kyyC0OLafyG5U_MLPPI-19" edge="1">
          <mxGeometry width="50" height="50" relative="1" as="geometry">
            <mxPoint x="620" y="200" as="sourcePoint" />
            <mxPoint x="670" y="150" as="targetPoint" />
          </mxGeometry>
        </mxCell>
        <mxCell id="2kyyC0OLafyG5U_MLPPI-22" value="" style="ellipse;whiteSpace=wrap;html=1;" parent="1" vertex="1">
          <mxGeometry x="600" y="50" width="120" height="80" as="geometry" />
        </mxCell>
        <mxCell id="2kyyC0OLafyG5U_MLPPI-23" value="dName" style="text;strokeColor=none;fillColor=none;html=1;fontSize=24;fontStyle=1;verticalAlign=middle;align=center;" parent="1" vertex="1">
          <mxGeometry x="610" y="70" width="100" height="40" as="geometry" />
        </mxCell>
        <mxCell id="2kyyC0OLafyG5U_MLPPI-24" value="" style="ellipse;whiteSpace=wrap;html=1;" parent="1" vertex="1">
          <mxGeometry x="820" y="50" width="120" height="80" as="geometry" />
        </mxCell>
        <mxCell id="2kyyC0OLafyG5U_MLPPI-25" value="&lt;u&gt;dId&lt;/u&gt;" style="text;strokeColor=none;fillColor=none;html=1;fontSize=24;fontStyle=1;verticalAlign=middle;align=center;" parent="1" vertex="1">
          <mxGeometry x="830" y="70" width="100" height="40" as="geometry" />
        </mxCell>
        <mxCell id="2kyyC0OLafyG5U_MLPPI-26" value="" style="endArrow=none;html=1;rounded=0;entryX=0.29;entryY=0.928;entryDx=0;entryDy=0;entryPerimeter=0;" parent="1" target="2kyyC0OLafyG5U_MLPPI-24" edge="1">
          <mxGeometry width="50" height="50" relative="1" as="geometry">
            <mxPoint x="810" y="170" as="sourcePoint" />
            <mxPoint x="850" y="130" as="targetPoint" />
          </mxGeometry>
        </mxCell>
        <mxCell id="2kyyC0OLafyG5U_MLPPI-27" value="" style="endArrow=none;html=1;rounded=0;" parent="1" target="2kyyC0OLafyG5U_MLPPI-22" edge="1">
          <mxGeometry width="50" height="50" relative="1" as="geometry">
            <mxPoint x="730" y="170" as="sourcePoint" />
            <mxPoint x="780" y="120" as="targetPoint" />
          </mxGeometry>
        </mxCell>
        <mxCell id="2kyyC0OLafyG5U_MLPPI-28" value="" style="endArrow=none;html=1;rounded=0;" parent="1" edge="1">
          <mxGeometry width="50" height="50" relative="1" as="geometry">
            <mxPoint x="30" y="190" as="sourcePoint" />
            <mxPoint x="120" y="200" as="targetPoint" />
          </mxGeometry>
        </mxCell>
        <mxCell id="2kyyC0OLafyG5U_MLPPI-29" value="" style="rhombus;whiteSpace=wrap;html=1;" parent="1" vertex="1">
          <mxGeometry x="-170" y="150" width="205" height="80" as="geometry" />
        </mxCell>
        <mxCell id="2kyyC0OLafyG5U_MLPPI-30" value="Acted_&lt;span style=&quot;background-color: transparent; color: light-dark(rgb(0, 0, 0), rgb(255, 255, 255));&quot;&gt;In&lt;/span&gt;" style="text;strokeColor=none;fillColor=none;html=1;fontSize=24;fontStyle=1;verticalAlign=middle;align=center;" parent="1" vertex="1">
          <mxGeometry x="-117.5" y="170" width="100" height="40" as="geometry" />
        </mxCell>
        <mxCell id="2kyyC0OLafyG5U_MLPPI-31" value="" style="endArrow=none;html=1;rounded=0;" parent="1" edge="1">
          <mxGeometry width="50" height="50" relative="1" as="geometry">
            <mxPoint x="-270" y="200" as="sourcePoint" />
            <mxPoint x="-170" y="190" as="targetPoint" />
          </mxGeometry>
        </mxCell>
        <mxCell id="2kyyC0OLafyG5U_MLPPI-32" value="" style="rounded=0;whiteSpace=wrap;html=1;" parent="1" vertex="1">
          <mxGeometry x="-450" y="170" width="180" height="60" as="geometry" />
        </mxCell>
        <mxCell id="2kyyC0OLafyG5U_MLPPI-33" value="Cast_Members" style="text;strokeColor=none;fillColor=none;html=1;fontSize=24;fontStyle=1;verticalAlign=middle;align=center;" parent="1" vertex="1">
          <mxGeometry x="-410" y="180" width="100" height="40" as="geometry" />
        </mxCell>
        <mxCell id="2kyyC0OLafyG5U_MLPPI-34" value="" style="ellipse;whiteSpace=wrap;html=1;" parent="1" vertex="1">
          <mxGeometry x="-560" y="50" width="120" height="80" as="geometry" />
        </mxCell>
        <mxCell id="2kyyC0OLafyG5U_MLPPI-35" value="&lt;u&gt;cId&lt;/u&gt;" style="text;strokeColor=none;fillColor=none;html=1;fontSize=24;fontStyle=1;verticalAlign=middle;align=center;" parent="1" vertex="1">
          <mxGeometry x="-550" y="70" width="100" height="40" as="geometry" />
        </mxCell>
        <mxCell id="2kyyC0OLafyG5U_MLPPI-36" value="" style="ellipse;whiteSpace=wrap;html=1;" parent="1" vertex="1">
          <mxGeometry x="-310" y="50" width="120" height="80" as="geometry" />
        </mxCell>
        <mxCell id="2kyyC0OLafyG5U_MLPPI-37" value="cName" style="text;strokeColor=none;fillColor=none;html=1;fontSize=24;fontStyle=1;verticalAlign=middle;align=center;" parent="1" vertex="1">
          <mxGeometry x="-300" y="70" width="100" height="40" as="geometry" />
        </mxCell>
        <mxCell id="2kyyC0OLafyG5U_MLPPI-38" value="" style="endArrow=none;html=1;rounded=0;" parent="1" target="2kyyC0OLafyG5U_MLPPI-36" edge="1">
          <mxGeometry width="50" height="50" relative="1" as="geometry">
            <mxPoint x="-310" y="170" as="sourcePoint" />
            <mxPoint x="-310" y="140" as="targetPoint" />
          </mxGeometry>
        </mxCell>
        <mxCell id="2kyyC0OLafyG5U_MLPPI-40" value="" style="endArrow=none;html=1;rounded=0;" parent="1" target="2kyyC0OLafyG5U_MLPPI-34" edge="1">
          <mxGeometry width="50" height="50" relative="1" as="geometry">
            <mxPoint x="-425" y="170" as="sourcePoint" />
            <mxPoint x="-375" y="120" as="targetPoint" />
          </mxGeometry>
        </mxCell>
        <mxCell id="2kyyC0OLafyG5U_MLPPI-41" value="" style="rounded=0;whiteSpace=wrap;html=1;" parent="1" vertex="1">
          <mxGeometry x="-280" y="510" width="230" height="60" as="geometry" />
        </mxCell>
        <mxCell id="2kyyC0OLafyG5U_MLPPI-42" value="Users" style="text;strokeColor=none;fillColor=none;html=1;fontSize=24;fontStyle=1;verticalAlign=middle;align=center;" parent="1" vertex="1">
          <mxGeometry x="-215" y="520" width="100" height="40" as="geometry" />
        </mxCell>
        <mxCell id="2kyyC0OLafyG5U_MLPPI-43" value="" style="endArrow=none;html=1;rounded=0;" parent="1" source="2kyyC0OLafyG5U_MLPPI-45" edge="1">
          <mxGeometry width="50" height="50" relative="1" as="geometry">
            <mxPoint x="-320" y="600" as="sourcePoint" />
            <mxPoint x="-240" y="570" as="targetPoint" />
          </mxGeometry>
        </mxCell>
        <mxCell id="2kyyC0OLafyG5U_MLPPI-44" value="" style="endArrow=none;html=1;rounded=0;" parent="1" target="2kyyC0OLafyG5U_MLPPI-47" edge="1">
          <mxGeometry width="50" height="50" relative="1" as="geometry">
            <mxPoint x="-160" y="570" as="sourcePoint" />
            <mxPoint x="-160" y="620" as="targetPoint" />
          </mxGeometry>
        </mxCell>
        <mxCell id="2kyyC0OLafyG5U_MLPPI-45" value="" style="ellipse;whiteSpace=wrap;html=1;" parent="1" vertex="1">
          <mxGeometry x="-380" y="640" width="120" height="80" as="geometry" />
        </mxCell>
        <mxCell id="2kyyC0OLafyG5U_MLPPI-46" value="&lt;u&gt;uId&lt;/u&gt;" style="text;strokeColor=none;fillColor=none;html=1;fontSize=24;fontStyle=1;verticalAlign=middle;align=center;" parent="1" vertex="1">
          <mxGeometry x="-370" y="660" width="100" height="40" as="geometry" />
        </mxCell>
        <mxCell id="2kyyC0OLafyG5U_MLPPI-47" value="" style="ellipse;whiteSpace=wrap;html=1;" parent="1" vertex="1">
          <mxGeometry x="-225" y="660" width="120" height="80" as="geometry" />
        </mxCell>
        <mxCell id="2kyyC0OLafyG5U_MLPPI-48" value="uName" style="text;strokeColor=none;fillColor=none;html=1;fontSize=24;fontStyle=1;verticalAlign=middle;align=center;" parent="1" vertex="1">
          <mxGeometry x="-215" y="680" width="100" height="40" as="geometry" />
        </mxCell>
        <mxCell id="2kyyC0OLafyG5U_MLPPI-50" value="" style="ellipse;whiteSpace=wrap;html=1;" parent="1" vertex="1">
          <mxGeometry x="-560" y="530" width="120" height="80" as="geometry" />
        </mxCell>
        <mxCell id="2kyyC0OLafyG5U_MLPPI-51" value="cNum" style="text;strokeColor=none;fillColor=none;html=1;fontSize=24;fontStyle=1;verticalAlign=middle;align=center;" parent="1" vertex="1">
          <mxGeometry x="-550" y="550" width="100" height="40" as="geometry" />
        </mxCell>
        <mxCell id="2kyyC0OLafyG5U_MLPPI-52" value="" style="endArrow=none;html=1;rounded=0;" parent="1" source="2kyyC0OLafyG5U_MLPPI-50" edge="1">
          <mxGeometry width="50" height="50" relative="1" as="geometry">
            <mxPoint x="-370" y="550" as="sourcePoint" />
            <mxPoint x="-280" y="530" as="targetPoint" />
          </mxGeometry>
        </mxCell>
        <mxCell id="2kyyC0OLafyG5U_MLPPI-53" value="" style="ellipse;whiteSpace=wrap;html=1;" parent="1" vertex="1">
          <mxGeometry x="-520" y="620" width="120" height="80" as="geometry" />
        </mxCell>
        <mxCell id="2kyyC0OLafyG5U_MLPPI-54" value="uAddress" style="text;strokeColor=none;fillColor=none;html=1;fontSize=24;fontStyle=1;verticalAlign=middle;align=center;" parent="1" vertex="1">
          <mxGeometry x="-510" y="640" width="100" height="40" as="geometry" />
        </mxCell>
        <mxCell id="2kyyC0OLafyG5U_MLPPI-55" value="" style="endArrow=none;html=1;rounded=0;" parent="1" source="2kyyC0OLafyG5U_MLPPI-53" edge="1">
          <mxGeometry width="50" height="50" relative="1" as="geometry">
            <mxPoint x="-330" y="620" as="sourcePoint" />
            <mxPoint x="-280" y="570" as="targetPoint" />
          </mxGeometry>
        </mxCell>
        <mxCell id="3MYASQ_tbwZk-lHEeH4o-1" value="" style="rounded=0;whiteSpace=wrap;html=1;" vertex="1" parent="1">
          <mxGeometry x="340" y="510" width="260" height="60" as="geometry" />
        </mxCell>
        <mxCell id="3MYASQ_tbwZk-lHEeH4o-2" value="Watchlist" style="text;strokeColor=none;fillColor=none;html=1;fontSize=24;fontStyle=1;verticalAlign=middle;align=center;" vertex="1" parent="1">
          <mxGeometry x="420" y="520" width="100" height="40" as="geometry" />
        </mxCell>
        <mxCell id="3MYASQ_tbwZk-lHEeH4o-3" value="" style="rhombus;whiteSpace=wrap;html=1;" vertex="1" parent="1">
          <mxGeometry x="55" y="480" width="200" height="80" as="geometry" />
        </mxCell>
        <mxCell id="3MYASQ_tbwZk-lHEeH4o-4" value="Created_&lt;div&gt;By&lt;/div&gt;" style="text;strokeColor=none;fillColor=none;html=1;fontSize=24;fontStyle=1;verticalAlign=middle;align=center;" vertex="1" parent="1">
          <mxGeometry x="110" y="500" width="100" height="40" as="geometry" />
        </mxCell>
        <mxCell id="3MYASQ_tbwZk-lHEeH4o-6" value="" style="endArrow=none;html=1;rounded=0;" edge="1" parent="1" target="3MYASQ_tbwZk-lHEeH4o-3">
          <mxGeometry width="50" height="50" relative="1" as="geometry">
            <mxPoint x="-50" y="545" as="sourcePoint" />
            <mxPoint y="495" as="targetPoint" />
          </mxGeometry>
        </mxCell>
        <mxCell id="3MYASQ_tbwZk-lHEeH4o-9" value="" style="rhombus;whiteSpace=wrap;html=1;" vertex="1" parent="1">
          <mxGeometry x="240" y="320" width="230" height="80" as="geometry" />
        </mxCell>
        <mxCell id="3MYASQ_tbwZk-lHEeH4o-10" value="Added_To" style="text;strokeColor=none;fillColor=none;html=1;fontSize=24;fontStyle=1;verticalAlign=middle;align=center;" vertex="1" parent="1">
          <mxGeometry x="305" y="340" width="100" height="40" as="geometry" />
        </mxCell>
        <mxCell id="3MYASQ_tbwZk-lHEeH4o-11" value="" style="endArrow=none;html=1;rounded=0;" edge="1" parent="1" source="3MYASQ_tbwZk-lHEeH4o-9" target="2kyyC0OLafyG5U_MLPPI-2">
          <mxGeometry width="50" height="50" relative="1" as="geometry">
            <mxPoint x="130" y="490" as="sourcePoint" />
            <mxPoint x="180" y="440" as="targetPoint" />
          </mxGeometry>
        </mxCell>
        <mxCell id="3MYASQ_tbwZk-lHEeH4o-12" value="" style="endArrow=none;html=1;rounded=0;" edge="1" parent="1" source="3MYASQ_tbwZk-lHEeH4o-1" target="3MYASQ_tbwZk-lHEeH4o-9">
          <mxGeometry width="50" height="50" relative="1" as="geometry">
            <mxPoint x="330" y="430" as="sourcePoint" />
            <mxPoint x="380" y="380" as="targetPoint" />
          </mxGeometry>
        </mxCell>
        <mxCell id="3MYASQ_tbwZk-lHEeH4o-13" value="" style="verticalLabelPosition=bottom;verticalAlign=top;html=1;shape=mxgraph.basic.acute_triangle;dx=0.5;" vertex="1" parent="1">
          <mxGeometry x="420" y="660" width="100" height="70" as="geometry" />
        </mxCell>
        <mxCell id="3MYASQ_tbwZk-lHEeH4o-14" value="ISA" style="text;strokeColor=none;fillColor=none;html=1;fontSize=24;fontStyle=1;verticalAlign=middle;align=center;" vertex="1" parent="1">
          <mxGeometry x="420" y="680" width="100" height="40" as="geometry" />
        </mxCell>
        <mxCell id="3MYASQ_tbwZk-lHEeH4o-15" value="" style="endArrow=none;html=1;rounded=0;exitX=0;exitY=0;exitDx=50;exitDy=0;exitPerimeter=0;" edge="1" parent="1" source="3MYASQ_tbwZk-lHEeH4o-13" target="3MYASQ_tbwZk-lHEeH4o-1">
          <mxGeometry width="50" height="50" relative="1" as="geometry">
            <mxPoint x="425" y="630" as="sourcePoint" />
            <mxPoint x="475" y="580" as="targetPoint" />
          </mxGeometry>
        </mxCell>
        <mxCell id="3MYASQ_tbwZk-lHEeH4o-16" value="" style="endArrow=classic;html=1;rounded=0;" edge="1" parent="1" source="3MYASQ_tbwZk-lHEeH4o-3" target="3MYASQ_tbwZk-lHEeH4o-1">
          <mxGeometry width="50" height="50" relative="1" as="geometry">
            <mxPoint x="130" y="490" as="sourcePoint" />
            <mxPoint x="180" y="440" as="targetPoint" />
          </mxGeometry>
        </mxCell>
      </root>
    </mxGraphModel>
  </diagram>
</mxfile>
